<svg width="4996" height="3280" viewBox="0 0 4996 3280" fill="none" xmlns="http://www.w3.org/2000/svg">
<path d="M805.811 512.273L834.5 496L954.5 436L1058.5 395L1159 359L1246 334L1351 310L1471 289L1595.5 275.5L1703.5 267.5L1809 263C1823.47 265.529 1823.43 286.275 1809 289L1739.5 300L1630.5 317L1538 334L1438 359L1351 385L1281 413.5L1213 442.5L1159 467.5L1142.61 476.426C1171.04 475.659 1213 479.5 1213 479.5L1272.5 486L1331 496L1361 502.5L1391 510.5L1421.5 519.5L1451 529.5L1505.5 550.5L1557.5 575L1595.5 595L1630.5 616.5L1674 645L1712 675L1778 730L1839 794.5L1902.5 881L1959 971.5C1970.33 996 1997.9 1048.3 2003.5 1061.5C2010.5 1078 2024 1127 2026.5 1135C2028.5 1141.4 2037.33 1179.67 2041.5 1198L2055 1265L2063.5 1336V1412L2055 1483L2032.5 1594L2004 1696L1952.5 1814.5L1888.5 1921L1827.5 2003L1375.5 2523L1166.25 2766.72C1162.28 2771.34 1156.49 2774 1150.4 2774C1144.42 2774 1138.73 2771.44 1134.76 2766.97L831 2424.5L585.5 2141L513 2056.5L463 1993.5L411 1925.5L372.5 1858.5L342.5 1798.5L311.5 1735.5L285.5 1679.5L267.5 1627.5L253.5 1568L243 1492.5L236 1404V1336C240.66 1271.42 250.16 1207.29 264.421 1144.14L267.5 1130.5L300.5 1043L345.5 952L414.5 848.5L501 746L576 677.5C646.463 614.35 723.509 558.956 805.811 512.273Z" fill="white"/>
<path d="M1150.01 2183.3C1361.46 2183.3 1564.26 2099.3 1713.78 1949.77C1863.31 1800.25 1947.31 1597.45 1947.31 1386C1947.31 1174.54 1863.31 971.741 1713.78 822.218C1564.26 672.695 1361.46 588.693 1150.01 588.693C938.548 588.693 735.751 672.695 586.228 822.218C436.704 971.741 352.703 1174.54 352.703 1386C352.703 1597.45 436.704 1800.25 586.228 1949.77C735.751 2099.3 938.548 2183.3 1150.01 2183.3Z" fill="#E95F35"/>
<path d="M2802.38 1217.37C2741.15 1216.58 2684.49 1199.81 2632.42 1167.05C2580.35 1134.3 2539.21 1091.19 2508.98 1037.72C2479.35 983.677 2464.93 926.038 2465.73 864.805C2466.51 804.155 2482.7 747.788 2514.28 695.702C2545.88 643.033 2588.12 601.584 2641 571.354C2693.9 540.542 2750.96 525.532 2812.19 526.324C2874.01 527.123 2930.67 543.313 2982.17 574.892C3033.67 606.472 3074.24 648.992 3103.88 702.453C3134.11 755.338 3148.83 812.397 3148.04 873.631C3147.22 936.613 3131.01 994.731 3099.41 1047.98C3068.4 1100.66 3026.45 1142.4 2973.56 1173.22C2921.25 1203.45 2864.2 1218.17 2802.38 1217.37ZM2802.71 1192C2858.69 1192.73 2910.78 1179.11 2958.97 1151.15C3007.17 1122.61 3045.58 1084.03 3074.2 1035.41C3103.42 986.208 3118.4 932.741 3119.15 875.007C3119.89 817.856 3106.58 764.606 3079.22 715.257C3051.86 665.909 3014.46 626.638 2967.01 597.444C2919.56 567.666 2867.85 552.416 2811.86 551.692C2755.3 550.96 2702.91 564.864 2654.72 593.404C2606.53 621.361 2567.83 659.648 2538.62 708.265C2509.99 756.89 2495.31 809.777 2494.57 866.928C2493.82 924.662 2507.13 978.495 2534.48 1028.43C2562.42 1077.78 2600.11 1117.35 2647.55 1147.13C2695 1176.32 2746.72 1191.28 2802.71 1192ZM3245.1 811.893L3273.09 812.255L3271.96 899.731C3285.16 870.738 3307.34 847.694 3338.47 830.599C3369.61 812.92 3403.84 804.322 3441.17 804.805C3489.57 805.431 3527.57 821.379 3555.16 852.649C3583.34 883.344 3597.08 926.1 3596.37 980.918L3593.41 1210.11L3565.42 1209.74L3568.38 980.556C3568.99 933.319 3557.8 896.429 3534.82 869.884C3512.41 843.347 3480.51 829.811 3439.1 829.275C3408.78 828.883 3380.69 835.519 3354.85 849.183C3329.6 862.272 3309.24 880.673 3293.77 904.387C3278.88 928.109 3271.24 955.132 3270.85 985.457L3268 1205.9L3240.01 1205.53L3245.1 811.893ZM3853.35 1221.34C3825.94 1220.99 3800.94 1214.54 3778.36 1202C3755.78 1188.87 3737.93 1170.85 3724.81 1147.94C3711.69 1125.02 3705.31 1099.56 3705.68 1071.57L3712.35 555.465L3740.34 555.827L3733.67 1071.93C3733.37 1095.26 3738.34 1116.32 3748.6 1135.12C3759.44 1153.93 3774.12 1168.99 3792.64 1180.31C3811.16 1191.05 3831.5 1196.56 3853.67 1196.85L3853.35 1221.34ZM4104.37 1390.82C4039.05 1389.98 3987.74 1365.98 3950.44 1318.84L3951.02 1274.22C3969.87 1304.8 3991.45 1327.53 4015.75 1342.43C4040.05 1357.91 4068.53 1365.86 4101.18 1366.28C4134.42 1366.71 4162.8 1360.08 4186.31 1346.39C4210.4 1332.7 4228.73 1313.69 4241.29 1289.35C4253.84 1265.6 4260.32 1238.85 4260.7 1209.11L4261.56 1142.63C4247.21 1169.86 4225.65 1190.87 4196.88 1205.66C4168.7 1219.88 4137.98 1226.77 4104.74 1226.34C4071.5 1225.91 4042.15 1218.24 4016.68 1203.33C3991.2 1188.42 3971.35 1167.75 3957.11 1141.32C3943.45 1114.89 3936.85 1084.48 3937.29 1050.07L3940.26 820.884L3968.25 821.246L3965.28 1050.43C3964.88 1081.92 3970.94 1109.12 3983.48 1132.03C3996.6 1154.37 4013.88 1171.51 4035.31 1183.45C4056.73 1195.39 4080.28 1201.53 4105.94 1201.86C4133.93 1202.22 4159.97 1195.85 4184.05 1182.75C4208.14 1169.06 4227.04 1150.93 4240.75 1128.36C4255.04 1105.22 4262.36 1080.52 4262.7 1054.28L4265.67 825.093L4293.66 825.455L4288.73 1206.85C4288.27 1241.84 4280.58 1273.24 4265.64 1301.04C4251.27 1329.44 4230.28 1351.62 4202.66 1367.59C4175.04 1383.57 4142.27 1391.31 4104.37 1390.82Z" fill="white"/>
<path d="M3140.13 2116.86C3089.19 2116.86 3063.72 2111.13 3063.72 2099.69L3045.69 1755.39L2940.94 2103.98C2938.65 2110.85 2919.19 2114.28 2882.55 2114.28C2845.92 2114.28 2827.03 2111.13 2825.88 2104.84L2717.7 1751.95L2705.68 2094.53C2705.11 2103.12 2694.23 2109.13 2673.05 2112.57C2651.87 2115.43 2634.13 2116.86 2619.82 2116.86C2606.08 2116.86 2592.63 2116 2579.47 2114.28C2551.99 2110.28 2538.54 2103.12 2539.11 2092.82L2558.86 1534.73C2558.86 1520.99 2593.78 1514.12 2663.61 1514.12C2684.22 1514.12 2709.4 1515.84 2739.17 1519.27C2768.93 1522.14 2785.53 1528.15 2788.96 1537.3L2885.13 1807.76L2969.27 1536.45C2974.42 1521.56 3013.92 1514.12 3087.76 1514.12C3108.94 1514.12 3134.12 1515.84 3163.31 1519.27C3193.08 1522.14 3207.96 1527.57 3207.96 1535.59L3232.86 2098.83C3232.86 2105.12 3221.7 2109.7 3199.37 2112.57C3177.05 2115.43 3157.3 2116.86 3140.13 2116.86ZM3597.1 1753.67C3607.98 1753.67 3613.41 1773.7 3613.41 1813.77C3613.41 1825.79 3611.98 1840.1 3609.12 1856.7C3606.83 1872.73 3602.25 1880.74 3595.38 1880.74H3486.34V1966.6H3644.32C3654.05 1966.6 3660.64 1979.2 3664.07 2004.38C3665.79 2015.26 3666.65 2026.99 3666.65 2039.58C3666.65 2051.61 3664.93 2067.35 3661.5 2086.81C3658.06 2106.27 3652.34 2116 3644.32 2116H3350.68C3328.93 2116 3318.06 2107.13 3318.06 2089.38V1537.3C3318.06 1522.42 3324.64 1514.98 3337.8 1514.98H3645.18C3657.2 1514.98 3663.21 1540.45 3663.21 1591.4C3663.21 1641.77 3657.2 1666.95 3645.18 1666.95H3486.34V1753.67H3597.1ZM3763.81 1906.5C3774.69 1915.09 3793.29 1926.82 3819.62 1941.7C3846.52 1956.59 3871.99 1964.03 3896.03 1964.03C3920.65 1964.03 3932.95 1954.58 3932.95 1935.69C3932.95 1927.11 3929.52 1919.67 3922.65 1913.37C3915.78 1906.5 3903.19 1898.77 3884.87 1890.19C3866.56 1881.6 3852.82 1875.02 3843.66 1870.44C3834.5 1865.29 3822.19 1857.28 3806.74 1846.4C3791.86 1834.95 3780.41 1823.22 3772.4 1811.2C3749.5 1778.57 3738.05 1737.07 3738.05 1686.7C3738.05 1636.33 3756.66 1593.97 3793.86 1559.63C3831.64 1524.71 3880.87 1507.25 3941.54 1507.25C3982.75 1507.25 4020.82 1511.83 4055.73 1520.99C4090.65 1529.58 4108.68 1541.02 4109.83 1555.33C4109.83 1557.05 4109.83 1558.77 4109.83 1560.49C4109.83 1580.52 4103.53 1605.99 4090.94 1636.9C4078.34 1667.24 4069.47 1684.12 4064.32 1687.56C4027.69 1668.67 3994.77 1659.23 3965.58 1659.23C3936.96 1659.23 3922.65 1669.53 3922.65 1690.13C3922.65 1702.73 3933.24 1713.89 3954.42 1723.62C3959 1725.91 3965.58 1729.06 3974.17 1733.06C3982.75 1737.07 3992.48 1741.94 4003.36 1747.66C4014.81 1752.81 4026.83 1759.68 4039.42 1768.27C4052.59 1776.28 4066.61 1787.16 4081.49 1800.89C4111.83 1829.51 4127 1867.29 4127 1914.23C4127 1975.48 4110.11 2025.56 4076.34 2064.48C4042.57 2103.41 3990.48 2123.44 3920.08 2124.59C3885.73 2124.59 3854.54 2121.72 3826.49 2116C3799.01 2110.28 3774.97 2099.11 3754.37 2082.51C3733.76 2065.91 3723.46 2045.88 3723.46 2022.41C3723.46 1998.94 3727.75 1975.76 3736.33 1952.87C3744.92 1929.4 3754.08 1913.94 3763.81 1906.5ZM4219.94 1906.5C4230.82 1915.09 4249.42 1926.82 4275.75 1941.7C4302.65 1956.59 4328.12 1964.03 4352.17 1964.03C4376.78 1964.03 4389.09 1954.58 4389.09 1935.69C4389.09 1927.11 4385.65 1919.67 4378.78 1913.37C4371.91 1906.5 4359.32 1898.77 4341 1890.19C4322.69 1881.6 4308.95 1875.02 4299.79 1870.44C4290.63 1865.29 4278.33 1857.28 4262.87 1846.4C4247.99 1834.95 4236.54 1823.22 4228.53 1811.2C4205.63 1778.57 4194.18 1737.07 4194.18 1686.7C4194.18 1636.33 4212.79 1593.97 4249.99 1559.63C4287.77 1524.71 4337 1507.25 4397.67 1507.25C4438.88 1507.25 4476.95 1511.83 4511.86 1520.99C4546.78 1529.58 4564.81 1541.02 4565.96 1555.33C4565.96 1557.05 4565.96 1558.77 4565.96 1560.49C4565.96 1580.52 4559.66 1605.99 4547.07 1636.9C4534.47 1667.24 4525.6 1684.12 4520.45 1687.56C4483.82 1668.67 4450.9 1659.23 4421.71 1659.23C4393.09 1659.23 4378.78 1669.53 4378.78 1690.13C4378.78 1702.73 4389.37 1713.89 4410.55 1723.62C4415.13 1725.91 4421.71 1729.06 4430.3 1733.06C4438.88 1737.07 4448.61 1741.94 4459.49 1747.66C4470.94 1752.81 4482.96 1759.68 4495.55 1768.27C4508.72 1776.28 4522.74 1787.16 4537.62 1800.89C4567.96 1829.51 4583.13 1867.29 4583.13 1914.23C4583.13 1975.48 4566.24 2025.56 4532.47 2064.48C4498.7 2103.41 4446.61 2123.44 4376.21 2124.59C4341.86 2124.59 4310.67 2121.72 4282.62 2116C4255.14 2110.28 4231.1 2099.11 4210.5 2082.51C4189.89 2065.91 4179.59 2045.88 4179.59 2022.41C4179.59 1998.94 4183.88 1975.76 4192.47 1952.87C4201.05 1929.4 4210.21 1913.94 4219.94 1906.5Z" fill="white"/>
<path d="M1845.39 102.758C1845.77 101.243 1847.29 100.291 1848.8 100.684C1853.11 101.805 1857.15 103.231 1861.3 105.105C1862.75 105.752 1864.21 106.398 1865.67 107.044C1866.45 107.392 1867.23 107.74 1868.03 108.099C1870.8 109.323 1873.59 110.523 1876.37 111.718C1877.36 112.142 1878.34 112.567 1879.36 113.004C1881.3 113.835 1883.23 114.665 1885.17 115.492C1889.03 117.159 1892.83 118.823 1896.51 120.873C1901.18 123.435 1906.18 125.156 1911.17 127.008C1918.35 129.723 1925.2 132.555 1931.96 136.191C1935.93 138.231 1940.05 139.822 1944.2 141.467C1959.16 147.487 1973.83 154.284 1988.57 160.822C1999.57 165.699 2010.58 170.547 2021.63 175.322C2024.17 176.423 2026.7 177.53 2029.24 178.638C2039.04 182.909 2048.84 187.146 2058.75 191.141C2062.09 192.503 2065.32 193.925 2068.48 195.664C2072.67 197.953 2077.04 199.671 2081.47 201.419C2089.55 204.654 2097.5 208.077 2105.43 211.659C2109.68 213.573 2113.95 215.456 2118.21 217.343C2119.12 217.743 2120.02 218.144 2120.95 218.557C2126.67 221.084 2132.4 223.575 2138.14 226.046C2142.15 227.777 2146.15 229.519 2150.04 231.526C2154.36 233.753 2158.86 235.492 2163.37 237.297C2168.02 239.192 2172.62 241.196 2177.22 243.209C2180.97 244.845 2184.72 246.462 2188.49 248.045C2189.27 248.373 2190.05 248.702 2190.85 249.04C2192.34 249.663 2193.83 250.284 2195.31 250.902C2199.57 252.691 2203.7 254.651 2207.83 256.74C2210.38 258.001 2212.99 259.071 2215.63 260.119C2216.74 260.564 2217.85 261.01 2218.99 261.469C2219.6 261.711 2220.2 261.953 2220.83 262.203C2224.74 263.776 2228.64 265.372 2232.54 266.975C2233.32 267.291 2234.09 267.607 2234.9 267.933C2238.47 269.405 2241.94 270.934 2245.34 272.779C2248.45 274.453 2251.52 275.809 2254.81 277.102C2256.84 277.934 2258.76 278.822 2260.62 279.786C2265.67 282.405 2267.13 288.75 2261.91 291.026C2255.23 293.932 2248.43 296.454 2241.58 298.923C2240.32 299.381 2239.06 299.839 2237.81 300.298C2235.33 301.202 2232.85 302.104 2230.37 303.004C2225.95 304.616 2221.53 306.248 2217.12 307.897C2216.4 308.166 2215.68 308.434 2214.94 308.711C2209.62 310.711 2204.33 312.798 2199.05 314.902C2192.71 317.414 2186.33 319.777 2179.93 322.137C2172.48 324.893 2165.05 327.715 2157.62 330.551C2149.85 333.518 2142.07 336.433 2134.23 339.201C2129.47 340.899 2124.76 342.732 2120.05 344.567C2108.67 348.993 2097.29 353.401 2085.86 357.685C2085.18 357.939 2084.51 358.193 2083.81 358.455C2076.68 361.13 2069.55 363.798 2062.4 366.438C2051.95 370.303 2041.54 374.251 2031.15 378.301C2021.18 382.189 2011.15 385.908 2001.12 389.632C1989.17 394.064 1977.26 398.532 1965.42 403.242C1960.11 405.342 1954.75 407.265 1949.37 409.162C1945.81 410.454 1942.31 411.845 1938.8 413.258C1931.42 416.224 1923.94 418.882 1916.44 421.534C1907.22 424.801 1898.11 428.248 1889.08 432.031C1885.35 433.578 1881.58 434.966 1877.76 436.292C1875.12 437.224 1872.51 438.226 1869.9 439.238C1868.96 439.597 1868.02 439.957 1867.06 440.327C1864.84 441.176 1862.63 442.035 1860.42 442.901C1859.23 443.356 1858.03 443.81 1856.8 444.279C1855.69 444.704 1854.59 445.13 1853.46 445.568C1849.08 446.707 1846.46 441.672 1848.61 437.687C1850.05 435.017 1851.81 432.572 1854.08 429.883C1856.18 427.251 1858.02 424.566 1859.85 421.739C1865.15 413.714 1870.77 405.94 1876.41 398.154C1877.53 396.606 1878.65 395.057 1879.77 393.509C1887.85 382.328 1896.04 371.219 1904.26 360.136C1912.05 349.625 1919.75 339.095 1926.87 328.114C1930.58 322.441 1934.55 316.965 1938.54 311.484C1945.36 302.107 1951.91 292.576 1958.33 282.921C1959.67 280.92 1961.03 278.938 1962.41 276.96C1963.18 275.906 1963.73 275.154 1964.14 274.517C1966.19 271.321 1965.02 267.091 1962.99 263.884C1960.78 260.391 1958.12 257.167 1955.53 253.949C1952.69 250.385 1950 246.722 1947.28 243.064C1945.88 241.176 1944.48 239.293 1943.06 237.414C1939.02 232.03 1935.07 226.587 1931.19 221.084C1927.84 216.339 1924.41 211.714 1920.77 207.182C1918.27 203.934 1915.92 200.588 1913.56 197.235C1910.16 192.413 1906.69 187.703 1903 183.097C1900.67 180.094 1898.46 177.011 1896.25 173.918C1892.7 168.957 1889.08 164.07 1885.36 159.235C1879.65 151.789 1874.13 144.214 1868.66 136.586C1866.22 133.188 1863.73 129.836 1861.17 126.524C1857.85 122.207 1854.66 117.799 1851.51 113.357C1851.04 112.7 1850.57 112.043 1850.09 111.366C1848.59 109.239 1847.1 107.123 1845.73 104.917C1845.32 104.271 1845.21 103.498 1845.39 102.758Z" fill="white"/>
<ellipse cx="1147.5" cy="1937.33" rx="439.8" ry="34.2001" fill="#C9C9C9"/>
<path d="M746.18 1328.61V1320.61H738.18H669.993C664.771 1320.59 659.676 1319 655.365 1316.05C651.051 1313.1 647.721 1308.92 645.809 1304.06C643.897 1299.19 643.489 1293.86 644.64 1288.76C645.789 1283.67 648.438 1279.04 652.245 1275.47C652.25 1275.47 652.256 1275.46 652.262 1275.46L1084.61 875.162L1084.61 875.157C1102.05 858.986 1124.95 850 1148.73 850C1172.52 850 1195.42 858.986 1212.86 875.157L1642.48 1275.46C1642.48 1275.46 1642.48 1275.46 1642.49 1275.46C1646.3 1279.04 1648.95 1283.67 1650.1 1288.76C1651.25 1293.86 1650.84 1299.19 1648.93 1304.06C1647.02 1308.92 1643.69 1313.1 1639.38 1316.05C1635.07 1319 1629.97 1320.59 1624.75 1320.61H1556.56H1548.56V1328.61V1737.8C1548.56 1762.81 1538.63 1786.79 1520.94 1804.48C1503.26 1822.16 1479.27 1832.1 1454.26 1832.1H840.478C815.469 1832.1 791.484 1822.16 773.799 1804.48C756.115 1786.79 746.18 1762.81 746.18 1737.8V1328.61ZM751.491 1254.55L736.562 1268.41H756.935H772.279C779.201 1268.41 785.84 1271.16 790.734 1276.05C795.629 1280.95 798.379 1287.59 798.379 1294.51V1737.8C798.379 1748.96 802.814 1759.67 810.709 1767.57C818.604 1775.46 829.313 1779.9 840.478 1779.9H1454.26C1465.43 1779.9 1476.14 1775.46 1484.03 1767.57C1491.93 1759.67 1496.36 1748.96 1496.36 1737.8V1294.51C1496.36 1287.59 1499.11 1280.95 1504.01 1276.05C1508.9 1271.16 1515.54 1268.41 1522.46 1268.41H1537.81H1558.18L1543.25 1254.55L1176 913.555L1176 913.552C1168.21 906.332 1157.99 902.32 1147.37 902.32C1136.75 902.32 1126.53 906.332 1118.74 913.552L1118.74 913.555L751.491 1254.55Z" fill="white" stroke="white" stroke-width="16"/>
<path d="M1270.31 1233.45L1269.54 1231.6C1281.56 1226.61 1294.1 1224.08 1306.82 1224.08C1330.17 1224.08 1351.78 1232.79 1367.63 1248.64C1376.2 1257.21 1382.68 1267.38 1386.87 1278.88C1390.89 1289.89 1392.64 1301.61 1392.09 1313.71C1390.97 1338.4 1380.41 1361.92 1362.38 1379.94L1338.77 1403.56C1329.13 1413.19 1317.95 1420.69 1305.56 1425.84C1293.54 1430.82 1281 1433.36 1268.29 1433.36H1268.29H1268.29H1268.29H1268.29H1268.29H1268.29H1268.29H1268.29H1268.29H1268.29H1268.28H1268.28C1257.18 1433.36 1246.25 1431.34 1236.19 1427.46L1211.67 1455.7L1370.56 1594.25C1370.61 1594.3 1370.67 1594.35 1370.72 1594.4C1383.91 1606.35 1391.76 1622.87 1392.17 1639.74C1392.54 1654.92 1386.97 1669.09 1376.45 1679.6C1376.45 1679.6 1376.45 1679.6 1376.45 1679.6L1375.61 1680.45L1375.61 1680.45C1365.42 1690.63 1351.81 1696.19 1337.17 1696.19C1336.69 1696.19 1336.22 1696.18 1335.74 1696.17C1318.87 1695.75 1302.36 1687.91 1290.4 1674.72M1270.31 1233.45L1291.88 1673.37M1270.31 1233.45L1269.54 1231.6C1257.14 1236.75 1245.97 1244.25 1236.33 1253.89L1212.71 1277.5C1197.82 1292.39 1188.03 1310.97 1184.41 1331.21C1181.42 1347.92 1182.99 1364.95 1188.81 1380.08L1156.81 1407.86L1112.98 1369.65C1118.45 1353.91 1119.25 1335.94 1115.22 1318.16C1110.41 1296.98 1099.31 1277.26 1083.15 1261.1L1031.73 1209.68C1027.36 1205.3 1020.27 1205.3 1015.9 1209.68L1017.31 1211.09L1015.9 1209.68C1011.52 1214.05 1011.52 1221.14 1015.9 1225.51L1017.29 1224.11L1015.9 1225.51L1067.32 1276.93C1093.62 1303.23 1102.48 1340.73 1089.49 1368.01C1087.32 1372.55 1088.45 1377.96 1092.23 1381.26L1139.74 1422.69L1117.31 1442.15L1077.27 1396.23C1073.97 1392.45 1068.55 1391.32 1064.01 1393.48C1036.73 1406.48 999.229 1397.62 972.933 1371.32L921.51 1319.9C917.138 1315.52 910.049 1315.52 905.677 1319.9C901.305 1324.27 901.305 1331.36 905.677 1335.73L907.092 1334.31L905.677 1335.73L957.101 1387.15L958.515 1385.74L957.101 1387.15C973.257 1403.31 992.985 1414.41 1014.16 1419.21C1031.95 1423.25 1049.91 1422.45 1065.65 1416.98L1100.4 1456.83L939.094 1596.87L939.093 1596.88L940.405 1598.39M1270.31 1233.45L940.293 1598.48C940.33 1598.45 940.367 1598.42 940.405 1598.39M1290.4 1674.72L1291.88 1673.37M1290.4 1674.72C1290.4 1674.72 1290.4 1674.72 1290.4 1674.72L1291.88 1673.37M1290.4 1674.72C1290.35 1674.67 1290.31 1674.61 1290.26 1674.56L1290.26 1674.56L1155.67 1520.21M1291.88 1673.37C1291.84 1673.33 1291.8 1673.29 1291.76 1673.24L1156.99 1518.69L1155.67 1520.21M1155.67 1520.21L1019.39 1677.18L1019.39 1677.18C1019.35 1677.22 1019.31 1677.27 1019.27 1677.31L1017.79 1675.98C1017.82 1675.94 1017.85 1675.9 1017.88 1675.87L1154.34 1518.69L1155.67 1520.21ZM940.405 1598.39L1101.72 1458.34L940.405 1598.39ZM953.419 1663.7L953.419 1663.7L952.571 1662.85C952.571 1662.85 952.571 1662.85 952.571 1662.85C945.799 1656.08 942.233 1647.25 942.485 1637.97C942.736 1628.71 946.754 1620.11 953.844 1613.72C953.849 1613.72 953.853 1613.71 953.857 1613.71L1123.48 1466.45L1123.48 1466.44L1123.49 1466.44C1123.5 1466.43 1123.54 1466.4 1123.57 1466.37L1123.57 1466.37C1123.59 1466.35 1123.61 1466.34 1123.62 1466.32L1123.64 1466.31L1209.75 1391.55C1213.65 1388.17 1214.73 1382.56 1212.37 1377.98C1198.73 1351.46 1205.25 1316.63 1228.55 1293.34L1252.16 1269.72C1266.95 1254.93 1286.89 1246.47 1306.82 1246.47C1324.26 1246.47 1340.22 1252.88 1351.8 1264.47C1377.69 1290.36 1375.61 1335.05 1346.55 1364.11L1322.93 1387.72C1308.15 1402.51 1288.21 1410.97 1268.29 1410.97C1257.63 1410.97 1247.26 1408.52 1238.3 1403.9C1233.71 1401.54 1228.1 1402.63 1224.72 1406.52L1226.23 1407.83L1224.72 1406.52L1002.56 1662.41C1002.56 1662.41 1002.56 1662.42 1002.55 1662.42C995.927 1669.78 987.006 1673.8 977.402 1673.8C968.461 1673.8 959.946 1670.22 953.419 1663.7ZM1360.62 1663.77L1360.62 1663.77L1359.77 1664.62C1359.77 1664.62 1359.77 1664.62 1359.77 1664.62C1353.65 1670.74 1345.33 1674.01 1336.29 1673.79C1325.64 1673.52 1314.97 1668.45 1307.06 1659.76C1307.05 1659.75 1307.05 1659.75 1307.04 1659.74L1170.49 1503.14L1196.99 1472.61L1355.74 1611.04C1355.75 1611.05 1355.75 1611.05 1355.76 1611.05C1364.45 1618.97 1369.53 1629.64 1369.79 1640.29C1370.01 1649.33 1366.74 1657.65 1360.62 1663.77Z" fill="white" stroke="white" stroke-width="4"/>
<path d="M1053.31 1335.08C1055.11 1336.88 1057.46 1337.77 1059.81 1337.77C1062.17 1337.77 1064.52 1336.88 1066.31 1335.08C1069.91 1331.49 1069.91 1325.67 1066.31 1322.08L992.815 1248.58C989.224 1244.99 983.402 1244.99 979.811 1248.58C976.22 1252.17 976.22 1257.99 979.811 1261.58L1053.31 1335.08ZM1018.07 1370.32C1019.86 1372.12 1022.22 1373.02 1024.57 1373.02C1026.92 1373.02 1029.27 1372.12 1031.07 1370.32C1034.66 1366.73 1034.66 1360.91 1031.07 1357.32L957.572 1283.82C953.981 1280.23 948.159 1280.23 944.568 1283.82C940.977 1287.41 940.977 1293.23 944.568 1296.83L1018.07 1370.32Z" fill="white" stroke="white" stroke-width="4"/>
<path d="M732.51 3126.8C732.844 3126.98 733.288 3126.89 733.622 3127.07C736.248 3128.26 739.184 3128.92 742.186 3129C743.84 3129 745.486 3128.82 747.08 3128.46L1150.01 3039.24L1552.94 3128.46C1554.53 3128.82 1556.18 3129 1557.83 3129C1560.83 3128.93 1563.76 3128.26 1566.36 3127.04C1566.73 3126.89 1567.14 3126.95 1567.47 3126.77L1901.15 2961.33C1904.59 2959.61 1907.25 2957.03 1908.73 2953.97C1910.2 2950.91 1910.4 2947.55 1909.3 2944.39L1724.52 2417.97C1723.76 2415.77 1722.4 2413.75 1720.54 2412.05C1718.68 2410.34 1716.36 2409.01 1713.77 2408.14C1711.18 2407.27 1708.37 2406.89 1705.57 2407.03C1702.77 2407.17 1700.05 2407.82 1697.6 2408.94L1513.64 2492.69C1509.61 2494.75 1506.71 2497.99 1505.55 2501.74C1504.38 2505.49 1505.03 2509.46 1507.37 2512.83C1509.71 2516.2 1513.55 2518.71 1518.11 2519.84C1522.66 2520.97 1527.58 2520.64 1531.84 2518.92L1695.31 2444.47L1869.82 2941.59L1572.66 3088.96L1502.07 2630.79C1501.46 2626.83 1498.94 2623.23 1495.06 2620.78C1491.17 2618.33 1486.25 2617.23 1481.37 2617.72C1476.48 2618.22 1472.04 2620.26 1469.02 2623.42C1466 2626.57 1464.65 2630.56 1465.26 2634.52L1535.96 3093.53L1168.55 3012.16V2930.04C1168.55 2926.05 1166.59 2922.23 1163.12 2919.41C1159.64 2916.59 1154.93 2915 1150.01 2915C1145.09 2915 1140.38 2916.59 1136.9 2919.41C1133.43 2922.23 1131.47 2926.05 1131.47 2930.04V3012.16L764.023 3093.53L834.725 2634.52C835.027 2632.56 834.85 2630.57 834.204 2628.66C833.557 2626.76 832.455 2624.98 830.959 2623.42C829.463 2621.86 827.603 2620.55 825.486 2619.57C823.368 2618.6 821.034 2617.97 818.616 2617.72C816.199 2617.48 813.746 2617.62 811.397 2618.15C809.048 2618.67 806.85 2619.56 804.927 2620.78C803.004 2621.99 801.395 2623.5 800.191 2625.22C798.987 2626.94 798.212 2628.83 797.91 2630.79L727.357 3088.96L430.202 2941.62L604.713 2444.53L768.176 2518.98C772.44 2520.7 777.358 2521.03 781.913 2519.9C786.468 2518.77 790.311 2516.26 792.649 2512.89C794.987 2509.52 795.64 2505.55 794.473 2501.8C793.306 2498.05 790.408 2494.81 786.38 2492.75L602.377 2408.97C599.94 2407.84 597.216 2407.18 594.413 2407.03C591.61 2406.89 588.804 2407.26 586.209 2408.13C583.614 2409 581.299 2410.35 579.443 2412.06C577.586 2413.77 576.237 2415.8 575.498 2418L390.717 2944.42C389.599 2947.58 389.792 2950.95 391.266 2954.01C392.74 2957.07 395.413 2959.65 398.874 2961.36L732.51 3126.8Z" fill="white"/>
</svg>
